<svg xmlns="http://www.w3.org/2000/svg" height="96" width="768" viewBox="0 0 800 100"><g fill="none" fill-rule="evenodd"><polygon fill="#5168C6" points="0 0 50 0 50 50 12.5 50 0 50"/><polygon fill="#5168C6" points="100 0 200 0 200 100 125 100 100 100"/><polygon fill="#5168C6" points="50 0 100 0 100 50 62.5 50 50 50"/><rect width="50" height="25" fill="#546DD2"/><rect width="50" height="5" x="50" fill="#546DD2"/><rect width="50" height="5" x="50" y="10" fill="#546DD2"/><rect width="50" height="5" x="50" y="20" fill="#546DD2"/><rect width="50" height="5" x="50" y="30" fill="#546DD2"/><rect width="50" height="5" x="50" y="40" fill="#546DD2"/><rect width="50" height="50" x="150" fill="#617AE0"/><rect width="25" height="25" x="150" y="25" fill="#5168C6"/><rect width="25" height="25" x="175" fill="#5168C6"/><polygon fill="#546DD2" points="175 25 200 25 175 50"/><polygon fill="#617AE0" points="0 25 12.5 25 37.5 50 0 50"/><rect width="25" height="50" x="50" fill="#617AE0"/><rect width="50" height="50" x="100" y="50" fill="#546DD2"/><rect width="50" height="50" y="50" fill="#5168C6"/><rect width="50" height="50" x="200" fill="#546DD2"/><rect width="50" height="50" x="200" y="50" fill="#546DD2"/><rect width="50" height="50" x="250" y="50" fill="#546DD2"/><rect width="100.5" height="2.5" x="200" y="52.33" fill="#617AE0"/><rect width="100.5" height="2.5" x="200" y="57.33" fill="#617AE0"/><rect width="100.5" height="2.5" x="200" y="62.33" fill="#617AE0"/><rect width="100.5" height="2.5" x="200" y="67.33" fill="#617AE0"/><rect width="100.5" height="2.5" x="200" y="72.33" fill="#617AE0"/><rect width="100.5" height="2.5" x="200" y="77.33" fill="#617AE0"/><rect width="100.5" height="2.5" x="200" y="82.33" fill="#617AE0"/><rect width="100.5" height="2.5" x="200" y="87.33" fill="#617AE0"/><rect width="100.5" height="2.5" x="200" y="92.33" fill="#617AE0"/><rect width="100.5" height="2.5" x="200" y="97.33" fill="#617AE0"/><path fill="#5168C6" d="M200 100a50 50 0 0 1 100 0H200z"/><path fill="#546DD2" d="M200.25 94.83c.08-.84.18-1.67.3-2.5h98.9c.12.83.22 1.66.3 2.5h-99.5zm-.19 2.5h99.88c.04.83.06 1.67.06 2.5H200c0-.83.02-1.67.06-2.5zm.94-7.5c.17-.84.36-1.67.58-2.5h96.84c.22.83.4 1.66.58 2.5h-98zm1.29-5c.26-.84.55-1.67.86-2.5h93.7c.31.83.6 1.66.86 2.5H202.3zm1.87-5c.37-.84.76-1.68 1.18-2.5h89.32c.42.82.81 1.66 1.18 2.5h-91.68zm2.53-5c.49-.85 1-1.68 1.55-2.5h83.52c.54.82 1.06 1.65 1.55 2.5H206.7zm3.3-5c.65-.85 1.32-1.69 2.01-2.5h76c.7.81 1.36 1.65 2 2.5h-80zm4.3-5a50.3 50.3 0 0 1 2.64-2.5h66.14c.91.8 1.79 1.64 2.64 2.5h-71.42zm5.7-5c1.18-.88 2.4-1.72 3.66-2.5h52.7c1.26.78 2.48 1.62 3.65 2.5h-60zm8.19-5c1.98-.96 4.04-1.8 6.16-2.5h31.32c2.12.7 4.18 1.54 6.16 2.5h-43.64z"/><path fill="#617AE0" d="M225 100a25 25 0 1 1 50 0h-50z"/><path fill="#546DD2" d="M237.33 99.83a12.5 12.5 0 0 1 25 0h-25z"/><rect width="50" height="50" x="350" y="50" fill="#546DD2"/><polygon fill="#5168C6" points="375 75 400 75 400 100 350 100"/><rect width="50" height="50" x="300" y="50" fill="#5168C6"/><rect width="50" height="50" x="350" fill="#5168C6"/><polygon fill="#617AE0" points="375 25 375 0 350 25"/><rect width="50" height="50" x="300" fill="#546DD2"/><path fill="#5168C6" d="M345 0v50h-5V0h5zm-10 0v50h-5V0h5zm-10 0v50h-5V0h5zm-10 0v50h-5V0h5zm-10 0v50h-5V0h5z"/><rect width="25" height="1" x="375" y="25" fill="#617AE0"/><rect width="25" height="1" x="375" y="30" fill="#617AE0"/><rect width="25" height="1" x="375" y="35" fill="#617AE0"/><rect width="25" height="1" x="375" y="40" fill="#617AE0"/><rect width="25" height="1" x="375" y="45" fill="#617AE0"/><rect width="25" height="12.5" x="375" fill="#546DD2"/><path fill="#617AE0" d="M346 0v50h-1V0h1zm-10 0v50h-1V0h1zm-10 0v50h-1V0h1zm-10 0v50h-1V0h1zm-10 0v50h-1V0h1z"/><path fill="#617AE0" d="M375 25v50a25 25 0 1 1 0-50z"/><path fill="#546DD2" d="M350 50a25 25 0 0 1 25-25v25h-25z"/><path fill="#5168C6" d="M250 50h-50V0a50 50 0 0 1 50 50z"/><path fill="#617AE0" d="M206.25 45a1.25 1.25 0 1 1 0-2.5 1.25 1.25 0 0 1 0 2.5zm0-7.5a1.25 1.25 0 1 1 0-2.5 1.25 1.25 0 0 1 0 2.5zm0-7.5a1.25 1.25 0 1 1 0-2.5 1.25 1.25 0 0 1 0 2.5zm0-7.5a1.25 1.25 0 1 1 0-2.5 1.25 1.25 0 0 1 0 2.5zm0-7.5a1.25 1.25 0 1 1 0-2.5 1.25 1.25 0 0 1 0 2.5zm0-7.5a1.25 1.25 0 1 1 0-2.5 1.25 1.25 0 0 1 0 2.5zm7.5 37.5a1.25 1.25 0 1 1 0-2.5 1.25 1.25 0 0 1 0 2.5zm0-7.5a1.25 1.25 0 1 1 0-2.5 1.25 1.25 0 0 1 0 2.5zm0-7.5a1.25 1.25 0 1 1 0-2.5 1.25 1.25 0 0 1 0 2.5zm0-7.5a1.25 1.25 0 1 1 0-2.5 1.25 1.25 0 0 1 0 2.5zm0-7.5a1.25 1.25 0 1 1 0-2.5 1.25 1.25 0 0 1 0 2.5zm7.5 30a1.25 1.25 0 1 1 0-2.5 1.25 1.25 0 0 1 0 2.5zm0-7.5a1.25 1.25 0 1 1 0-2.5 1.25 1.25 0 0 1 0 2.5zm0-7.5a1.25 1.25 0 1 1 0-2.5 1.25 1.25 0 0 1 0 2.5zm0-7.5a1.25 1.25 0 1 1 0-2.5 1.25 1.25 0 0 1 0 2.5zm0-7.5a1.25 1.25 0 1 1 0-2.5 1.25 1.25 0 0 1 0 2.5zm7.5 30a1.25 1.25 0 1 1 0-2.5 1.25 1.25 0 0 1 0 2.5zm0-7.5a1.25 1.25 0 1 1 0-2.5 1.25 1.25 0 0 1 0 2.5zm0-7.5a1.25 1.25 0 1 1 0-2.5 1.25 1.25 0 0 1 0 2.5zm0-7.5a1.25 1.25 0 1 1 0-2.5 1.25 1.25 0 0 1 0 2.5zm7.5 22.5a1.25 1.25 0 1 1 0-2.5 1.25 1.25 0 0 1 0 2.5zm0-7.5a1.25 1.25 0 1 1 0-2.5 1.25 1.25 0 0 1 0 2.5zm0-7.5a1.25 1.25 0 1 1 0-2.5 1.25 1.25 0 0 1 0 2.5zm7.5 15a1.25 1.25 0 1 1 0-2.5 1.25 1.25 0 0 1 0 2.5z"/><rect width="50" height="50" x="50" y="50" fill="#5168C6"/><rect width="50" height="50" x="250" fill="#617AE0"/><polygon fill="#546DD2" points="262.5 37.5 287.5 12.5 312.5 37.5" transform="rotate(-90 287.5 25)"/><polygon fill="#5168C6" points="237.5 37.5 262.5 12.5 287.5 37.5" transform="rotate(-90 262.5 25)"/><polygon fill="#546DD2" points="50 50 100 50 50 100"/><polygon fill="#546DD2" points="150 50 200 100 200 50"/><polygon fill="#617AE0" points="175 75 200 100 150 100"/><circle cx="57.5" cy="10" r="2.5" fill="#546DD2"/><circle cx="67.5" cy="10" r="2.5" fill="#546DD2"/><circle cx="57.5" cy="20" r="2.5" fill="#546DD2"/><circle cx="67.5" cy="20" r="2.5" fill="#546DD2"/><circle cx="57.5" cy="30" r="2.5" fill="#546DD2"/><circle cx="67.5" cy="30" r="2.5" fill="#546DD2"/><circle cx="57.5" cy="40" r="2.5" fill="#546DD2"/><circle cx="67.5" cy="40" r="2.5" fill="#546DD2"/><circle cx="317.5" cy="67.5" r="2.5" fill="#617AE0"/><circle cx="332.5" cy="67.5" r="2.5" fill="#617AE0"/><circle cx="317.5" cy="82.5" r="2.5" fill="#617AE0"/><circle cx="332.5" cy="82.5" r="2.5" fill="#617AE0"/><path fill="#5168C6" d="M100 0a50 50 0 0 1 0 100V0z"/><path fill="#546DD2" d="M150 50h-50V0a50 50 0 0 1 50 50z"/><path fill="#617AE0" d="M100 6.5a43.5 43.5 0 1 1 0 87v-2a41.5 41.5 0 0 0 0-83v-2zm0 10a33.5 33.5 0 0 1 0 67v-2a31.5 31.5 0 1 0 0-63v-2zm0 10a23.5 23.5 0 1 1 0 47v-2a21.5 21.5 0 0 0 0-43v-2zm0 10a13.5 13.5 0 0 1 0 27v-2a11.5 11.5 0 1 0 0-23v-2z"/><circle cx="162.5" cy="37.5" r="5" fill="#617AE0"/><rect width="12.5" height="25" x="150" fill="#546DD2"/><rect width="1" height="50" y="50" fill="#617AE0"/><rect width="1" height="50" x="5" y="50" fill="#617AE0"/><rect width="1" height="50" x="10" y="50" fill="#617AE0"/><rect width="1" height="50" x="15" y="50" fill="#617AE0"/><rect width="1" height="50" x="20" y="50" fill="#617AE0"/><rect width="1" height="50" x="25" y="50" fill="#617AE0"/><rect width="1" height="50" x="30" y="50" fill="#617AE0"/><rect width="1" height="50" x="35" y="50" fill="#617AE0"/><rect width="1" height="50" x="40" y="50" fill="#617AE0"/><rect width="1" height="50" x="45" y="50" fill="#617AE0"/><circle cx="75" cy="75" r="15" fill="#617AE0"/><circle cx="75" cy="75" r="13" fill="#546DD2"/><path fill="#5168C6" d="M65.8 84.2a13 13 0 0 1 18.4-18.4L65.8 84.2z"/><g transform="translate(400)"><polygon fill="#5168C6" points="0 50 50 50 50 100 12.5 100 0 100"/><polygon fill="#5168C6" points="100 0 200 0 200 100 125 100 100 100"/><polygon fill="#5168C6" points="50 50 100 50 100 100 62.5 100 50 100"/><rect width="50" height="25" y="50" fill="#546DD2"/><rect width="50" height="5" x="50" y="50" fill="#546DD2"/><rect width="50" height="5" x="50" y="60" fill="#546DD2"/><rect width="50" height="5" x="50" y="70" fill="#546DD2"/><rect width="50" height="5" x="50" y="80" fill="#546DD2"/><rect width="50" height="5" x="50" y="90" fill="#546DD2"/><rect width="50" height="50" x="150" y="50" fill="#617AE0"/><rect width="25" height="25" x="150" y="75" fill="#5168C6"/><rect width="25" height="25" x="175" y="50" fill="#5168C6"/><polygon fill="#546DD2" points="175 75 200 75 175 100"/><polygon fill="#617AE0" points="0 75 12.5 75 37.5 100 0 100"/><rect width="25" height="50" x="50" y="50" fill="#617AE0"/><rect width="50" height="50" x="100" fill="#546DD2"/><rect width="50" height="50" fill="#5168C6"/><rect width="50" height="50" x="200" y="50" fill="#546DD2"/><rect width="50" height="50" x="200" fill="#546DD2"/><rect width="50" height="50" x="250" fill="#546DD2"/><rect width="100.5" height="2.5" x="200" y="2.33" fill="#617AE0"/><rect width="100.5" height="2.5" x="200" y="7.33" fill="#617AE0"/><rect width="100.5" height="2.5" x="200" y="12.33" fill="#617AE0"/><rect width="100.5" height="2.5" x="200" y="17.33" fill="#617AE0"/><rect width="100.5" height="2.5" x="200" y="22.33" fill="#617AE0"/><rect width="100.5" height="2.5" x="200" y="27.33" fill="#617AE0"/><rect width="100.5" height="2.5" x="200" y="32.33" fill="#617AE0"/><rect width="100.5" height="2.5" x="200" y="37.33" fill="#617AE0"/><rect width="100.5" height="2.5" x="200" y="42.33" fill="#617AE0"/><rect width="100.5" height="2.5" x="200" y="47.33" fill="#617AE0"/><path fill="#5168C6" d="M200 50a50 50 0 0 1 100 0H200z"/><path fill="#546DD2" d="M200.25 44.83c.08-.84.18-1.67.3-2.5h98.9c.12.83.22 1.66.3 2.5h-99.5zm-.19 2.5h99.88c.04.83.06 1.67.06 2.5H200c0-.83.02-1.67.06-2.5zm.94-7.5c.17-.84.36-1.67.58-2.5h96.84c.22.83.4 1.66.58 2.5h-98zm1.29-5c.26-.84.55-1.67.86-2.5h93.7c.31.83.6 1.66.86 2.5H202.3zm1.87-5c.37-.84.76-1.68 1.18-2.5h89.32c.42.82.81 1.66 1.18 2.5h-91.68zm2.53-5c.49-.85 1-1.68 1.55-2.5h83.52c.54.82 1.06 1.65 1.55 2.5H206.7zm3.3-5c.65-.85 1.32-1.69 2.01-2.5h76c.7.81 1.36 1.65 2 2.5h-80zm4.3-5a50.3 50.3 0 0 1 2.64-2.5h66.14c.91.8 1.79 1.64 2.64 2.5h-71.42zm5.7-5c1.18-.88 2.4-1.72 3.66-2.5h52.7c1.26.78 2.48 1.62 3.65 2.5h-60zm8.19-5c1.98-.96 4.04-1.8 6.16-2.5h31.32c2.12.7 4.18 1.54 6.16 2.5h-43.64z"/><path fill="#617AE0" d="M225 50a25 25 0 1 1 50 0h-50z"/><path fill="#546DD2" d="M237.33 49.83a12.5 12.5 0 0 1 25 0h-25z"/><rect width="50" height="50" x="350" fill="#546DD2"/><polygon fill="#5168C6" points="375 25 400 25 400 50 350 50"/><rect width="50" height="50" x="300" fill="#5168C6"/><rect width="50" height="50" x="350" y="50" fill="#5168C6"/><polygon fill="#617AE0" points="375 75 375 50 350 75"/><rect width="50" height="50" x="300" y="50" fill="#546DD2"/><path fill="#5168C6" d="M345 50v50h-5V50h5zm-10 0v50h-5V50h5zm-10 0v50h-5V50h5zm-10 0v50h-5V50h5zm-10 0v50h-5V50h5z"/><rect width="25" height="1" x="375" y="75" fill="#617AE0"/><rect width="25" height="1" x="375" y="80" fill="#617AE0"/><rect width="25" height="1" x="375" y="85" fill="#617AE0"/><rect width="25" height="1" x="375" y="90" fill="#617AE0"/><rect width="25" height="1" x="375" y="95" fill="#617AE0"/><rect width="25" height="12.5" x="375" y="50" fill="#546DD2"/><path fill="#617AE0" d="M346 50v50h-1V50h1zm-10 0v50h-1V50h1zm-10 0v50h-1V50h1zm-10 0v50h-1V50h1zm-10 0v50h-1V50h1z"/><path fill="#617AE0" d="M350 0h25v25a25 25 0 0 1-25-25z"/><path fill="#546DD2" d="M350 100a25 25 0 0 1 25-25v25h-25z"/><path fill="#5168C6" d="M250 100h-50V50a50 50 0 0 1 50 50z"/><path fill="#617AE0" d="M206.25 95a1.25 1.25 0 1 1 0-2.5 1.25 1.25 0 0 1 0 2.5zm0-7.5a1.25 1.25 0 1 1 0-2.5 1.25 1.25 0 0 1 0 2.5zm0-7.5a1.25 1.25 0 1 1 0-2.5 1.25 1.25 0 0 1 0 2.5zm0-7.5a1.25 1.25 0 1 1 0-2.5 1.25 1.25 0 0 1 0 2.5zm0-7.5a1.25 1.25 0 1 1 0-2.5 1.25 1.25 0 0 1 0 2.5zm0-7.5a1.25 1.25 0 1 1 0-2.5 1.25 1.25 0 0 1 0 2.5zm7.5 37.5a1.25 1.25 0 1 1 0-2.5 1.25 1.25 0 0 1 0 2.5zm0-7.5a1.25 1.25 0 1 1 0-2.5 1.25 1.25 0 0 1 0 2.5zm0-7.5a1.25 1.25 0 1 1 0-2.5 1.25 1.25 0 0 1 0 2.5zm0-7.5a1.25 1.25 0 1 1 0-2.5 1.25 1.25 0 0 1 0 2.5zm0-7.5a1.25 1.25 0 1 1 0-2.5 1.25 1.25 0 0 1 0 2.5zm7.5 30a1.25 1.25 0 1 1 0-2.5 1.25 1.25 0 0 1 0 2.5zm0-7.5a1.25 1.25 0 1 1 0-2.5 1.25 1.25 0 0 1 0 2.5zm0-7.5a1.25 1.25 0 1 1 0-2.5 1.25 1.25 0 0 1 0 2.5zm0-7.5a1.25 1.25 0 1 1 0-2.5 1.25 1.25 0 0 1 0 2.5zm0-7.5a1.25 1.25 0 1 1 0-2.5 1.25 1.25 0 0 1 0 2.5zm7.5 30a1.25 1.25 0 1 1 0-2.5 1.25 1.25 0 0 1 0 2.5zm0-7.5a1.25 1.25 0 1 1 0-2.5 1.25 1.25 0 0 1 0 2.5zm0-7.5a1.25 1.25 0 1 1 0-2.5 1.25 1.25 0 0 1 0 2.5zm0-7.5a1.25 1.25 0 1 1 0-2.5 1.25 1.25 0 0 1 0 2.5zm7.5 22.5a1.25 1.25 0 1 1 0-2.5 1.25 1.25 0 0 1 0 2.5zm0-7.5a1.25 1.25 0 1 1 0-2.5 1.25 1.25 0 0 1 0 2.5zm0-7.5a1.25 1.25 0 1 1 0-2.5 1.25 1.25 0 0 1 0 2.5zm7.5 15a1.25 1.25 0 1 1 0-2.5 1.25 1.25 0 0 1 0 2.5z"/><rect width="50" height="50" x="50" fill="#5168C6"/><rect width="50" height="50" x="250" y="50" fill="#617AE0"/><polygon fill="#546DD2" points="262.5 87.5 287.5 62.5 312.5 87.5" transform="rotate(-90 287.5 75)"/><polygon fill="#5168C6" points="237.5 87.5 262.5 62.5 287.5 87.5" transform="rotate(-90 262.5 75)"/><polygon fill="#546DD2" points="50 0 100 0 50 50"/><polygon fill="#546DD2" points="150 0 200 50 200 0"/><polygon fill="#617AE0" points="175 25 200 50 150 50"/><circle cx="57.5" cy="60" r="2.5" fill="#546DD2"/><circle cx="67.5" cy="60" r="2.5" fill="#546DD2"/><circle cx="57.5" cy="70" r="2.5" fill="#546DD2"/><circle cx="67.5" cy="70" r="2.5" fill="#546DD2"/><circle cx="57.5" cy="80" r="2.5" fill="#546DD2"/><circle cx="67.5" cy="80" r="2.5" fill="#546DD2"/><circle cx="57.5" cy="90" r="2.5" fill="#546DD2"/><circle cx="67.5" cy="90" r="2.5" fill="#546DD2"/><circle cx="317.5" cy="17.5" r="2.5" fill="#617AE0"/><circle cx="332.5" cy="17.5" r="2.5" fill="#617AE0"/><circle cx="317.5" cy="32.5" r="2.5" fill="#617AE0"/><circle cx="332.5" cy="32.5" r="2.5" fill="#617AE0"/><path fill="#5168C6" d="M150 0a50 50 0 0 1-50 50V0h50z"/><path fill="#546DD2" d="M150 100h-50V50a50 50 0 0 1 50 50z"/><path fill="#617AE0" d="M143.5 0A43.5 43.5 0 0 1 100 43.5v-2A41.5 41.5 0 0 0 141.5 0h2zm-10 0c0 18.5-15 33.5-33.5 33.5v-2A31.5 31.5 0 0 0 131.5 0h2zm-10 0A23.5 23.5 0 0 1 100 23.5v-2A21.5 21.5 0 0 0 121.5 0h2zm-10 0A13.5 13.5 0 0 1 100 13.5v-2A11.5 11.5 0 0 0 111.5 0h2zm30 100h-2A41.5 41.5 0 0 0 100 58.5v-2a43.5 43.5 0 0 1 43.5 43.5zm-10 0h-2A31.5 31.5 0 0 0 100 68.5v-2c18.5 0 33.5 15 33.5 33.5zm-10 0h-2A21.5 21.5 0 0 0 100 78.5v-2a23.5 23.5 0 0 1 23.5 23.5zm-10 0h-2A11.5 11.5 0 0 0 100 88.5v-2a13.5 13.5 0 0 1 13.5 13.5z"/><circle cx="162.5" cy="87.5" r="5" fill="#617AE0"/><rect width="12.5" height="25" x="150" y="50" fill="#546DD2"/><rect width="1" height="50" fill="#617AE0"/><rect width="1" height="50" x="5" fill="#617AE0"/><rect width="1" height="50" x="10" fill="#617AE0"/><rect width="1" height="50" x="15" fill="#617AE0"/><rect width="1" height="50" x="20" fill="#617AE0"/><rect width="1" height="50" x="25" fill="#617AE0"/><rect width="1" height="50" x="30" fill="#617AE0"/><rect width="1" height="50" x="35" fill="#617AE0"/><rect width="1" height="50" x="40" fill="#617AE0"/><rect width="1" height="50" x="45" fill="#617AE0"/><circle cx="75" cy="25" r="15" fill="#617AE0"/><circle cx="75" cy="25" r="13" fill="#546DD2"/><path fill="#5168C6" d="M65.8 34.2a13 13 0 0 1 18.4-18.4L65.8 34.2z"/></g></g></svg>
